<svg viewBox="0 0 330 200" xmlns="http://www.w3.org/2000/svg"><g><g><g><g><g><line x1="40" y1="177" x2="35" y2="177" style="visibility: inherit;" fill="rgb(0, 0, 0)" stroke="rgb(204, 204, 204)" stroke-width="1px"></line><line x1="40" y1="151.71428571428572" x2="35" y2="151.71428571428572" style="visibility: inherit;" fill="rgb(0, 0, 0)" stroke="rgb(204, 204, 204)" stroke-width="1px"></line><line x1="40" y1="126.42857142857143" x2="35" y2="126.42857142857143" style="visibility: inherit;" fill="rgb(0, 0, 0)" stroke="rgb(204, 204, 204)" stroke-width="1px"></line><line x1="40" y1="101.14285714285714" x2="35" y2="101.14285714285714" style="visibility: inherit;" fill="rgb(0, 0, 0)" stroke="rgb(204, 204, 204)" stroke-width="1px"></line><line x1="40" y1="75.85714285714286" x2="35" y2="75.85714285714286" style="visibility: inherit;" fill="rgb(0, 0, 0)" stroke="rgb(204, 204, 204)" stroke-width="1px"></line><line x1="40" y1="50.57142857142857" x2="35" y2="50.57142857142857" style="visibility: inherit;" fill="rgb(0, 0, 0)" stroke="rgb(204, 204, 204)" stroke-width="1px"></line><line x1="40" y1="25.285714285714295" x2="35" y2="25.285714285714295" style="visibility: inherit;" fill="rgb(0, 0, 0)" stroke="rgb(204, 204, 204)" stroke-width="1px"></line><line x1="40" y1="0" x2="35" y2="0" style="visibility: inherit;" fill="rgb(0, 0, 0)" stroke="rgb(204, 204, 204)" stroke-width="1px"></line></g><g transform="translate(30, 0)"><text x="0" y="177" dx="0em" dy="0.3em" style="text-anchor: end; visibility: hidden; font-family: Roboto, sans-serif; font-size: 12px; font-weight: 200;" fill="rgb(33, 33, 33)" stroke="none" stroke-width="1px">-25</text><text x="0" y="151.71428571428572" dx="0em" dy="0.3em" style="text-anchor: end; visibility: inherit; font-family: Roboto, sans-serif; font-size: 12px; font-weight: 200;" fill="rgb(33, 33, 33)" stroke="none" stroke-width="1px">-20</text><text x="0" y="126.42857142857143" dx="0em" dy="0.3em" style="text-anchor: end; visibility: inherit; font-family: Roboto, sans-serif; font-size: 12px; font-weight: 200;" fill="rgb(33, 33, 33)" stroke="none" stroke-width="1px">-15</text><text x="0" y="101.14285714285714" dx="0em" dy="0.3em" style="text-anchor: end; visibility: inherit; font-family: Roboto, sans-serif; font-size: 12px; font-weight: 200;" fill="rgb(33, 33, 33)" stroke="none" stroke-width="1px">-10</text><text x="0" y="75.85714285714286" dx="0em" dy="0.3em" style="text-anchor: end; visibility: inherit; font-family: Roboto, sans-serif; font-size: 12px; font-weight: 200;" fill="rgb(33, 33, 33)" stroke="none" stroke-width="1px">-5</text><text x="0" y="50.57142857142857" dx="0em" dy="0.3em" style="text-anchor: end; visibility: inherit; font-family: Roboto, sans-serif; font-size: 12px; font-weight: 200;" fill="rgb(33, 33, 33)" stroke="none" stroke-width="1px">0</text><text x="0" y="25.285714285714295" dx="0em" dy="0.3em" style="text-anchor: end; visibility: inherit; font-family: Roboto, sans-serif; font-size: 12px; font-weight: 200;" fill="rgb(33, 33, 33)" stroke="none" stroke-width="1px">5</text><text x="0" y="0" dx="0em" dy="0.3em" style="text-anchor: end; visibility: hidden; font-family: Roboto, sans-serif; font-size: 12px; font-weight: 200;" fill="rgb(33, 33, 33)" stroke="none" stroke-width="1px">10</text></g><line x1="40" y1="0" x2="40" y2="177" fill="rgb(0, 0, 0)" stroke="rgb(204, 204, 204)" stroke-width="1px"></line></g></g><g transform="translate(40, 0)" clip-path="url(#clip_0)"><clipPath id="clip_0"><rect width="290" height="177"></rect></clipPath><g><g><g><line x1="0" y1="0" x2="0" y2="177" fill="rgb(0, 0, 0)" stroke="rgb(66, 66, 66)" stroke-width="1px" opacity="0.25"></line><line x1="24.166666666666664" y1="0" x2="24.166666666666664" y2="177" fill="rgb(0, 0, 0)" stroke="rgb(66, 66, 66)" stroke-width="1px" opacity="0.25"></line><line x1="48.33333333333333" y1="0" x2="48.33333333333333" y2="177" fill="rgb(0, 0, 0)" stroke="rgb(66, 66, 66)" stroke-width="1px" opacity="0.25"></line><line x1="72.5" y1="0" x2="72.5" y2="177" fill="rgb(0, 0, 0)" stroke="rgb(66, 66, 66)" stroke-width="1px" opacity="0.25"></line><line x1="96.66666666666666" y1="0" x2="96.66666666666666" y2="177" fill="rgb(0, 0, 0)" stroke="rgb(66, 66, 66)" stroke-width="1px" opacity="0.25"></line><line x1="120.83333333333334" y1="0" x2="120.83333333333334" y2="177" fill="rgb(0, 0, 0)" stroke="rgb(66, 66, 66)" stroke-width="1px" opacity="0.25"></line><line x1="145" y1="0" x2="145" y2="177" fill="rgb(0, 0, 0)" stroke="rgb(66, 66, 66)" stroke-width="1px" opacity="0.25"></line><line x1="169.16666666666669" y1="0" x2="169.16666666666669" y2="177" fill="rgb(0, 0, 0)" stroke="rgb(66, 66, 66)" stroke-width="1px" opacity="0.25"></line><line x1="193.33333333333331" y1="0" x2="193.33333333333331" y2="177" fill="rgb(0, 0, 0)" stroke="rgb(66, 66, 66)" stroke-width="1px" opacity="0.25"></line><line x1="217.5" y1="0" x2="217.5" y2="177" fill="rgb(0, 0, 0)" stroke="rgb(66, 66, 66)" stroke-width="1px" opacity="0.25"></line><line x1="241.66666666666669" y1="0" x2="241.66666666666669" y2="177" fill="rgb(0, 0, 0)" stroke="rgb(66, 66, 66)" stroke-width="1px" opacity="0.25"></line><line x1="265.8333333333333" y1="0" x2="265.8333333333333" y2="177" fill="rgb(0, 0, 0)" stroke="rgb(66, 66, 66)" stroke-width="1px" opacity="0.25"></line><line x1="290" y1="0" x2="290" y2="177" fill="rgb(0, 0, 0)" stroke="rgb(66, 66, 66)" stroke-width="1px" opacity="0.25"></line></g><g><line x1="0" y1="177" x2="290" y2="177" fill="rgb(0, 0, 0)" stroke="rgb(66, 66, 66)" stroke-width="1px" opacity="0.25"></line><line x1="0" y1="151.71428571428572" x2="290" y2="151.71428571428572" fill="rgb(0, 0, 0)" stroke="rgb(66, 66, 66)" stroke-width="1px" opacity="0.25"></line><line x1="0" y1="126.42857142857143" x2="290" y2="126.42857142857143" fill="rgb(0, 0, 0)" stroke="rgb(66, 66, 66)" stroke-width="1px" opacity="0.25"></line><line x1="0" y1="101.14285714285714" x2="290" y2="101.14285714285714" fill="rgb(0, 0, 0)" stroke="rgb(66, 66, 66)" stroke-width="1px" opacity="0.25"></line><line x1="0" y1="75.85714285714286" x2="290" y2="75.85714285714286" fill="rgb(0, 0, 0)" stroke="rgb(66, 66, 66)" stroke-width="1px" opacity="0.25"></line><line x1="0" y1="50.57142857142857" x2="290" y2="50.57142857142857" fill="rgb(0, 0, 0)" stroke="rgb(66, 66, 66)" stroke-width="1px" opacity="0.25"></line><line x1="0" y1="25.285714285714295" x2="290" y2="25.285714285714295" fill="rgb(0, 0, 0)" stroke="rgb(66, 66, 66)" stroke-width="1px" opacity="0.25"></line><line x1="0" y1="0" x2="290" y2="0" fill="rgb(0, 0, 0)" stroke="rgb(66, 66, 66)" stroke-width="1px" opacity="0.25"></line></g></g></g><g><g><line x1="0" y1="50.57142857142857" x2="290" y2="50.57142857142857" fill="rgb(0, 0, 0)" stroke="rgb(153, 153, 153)" stroke-width="1.5px"></line></g></g><g><g><line x1="24.166666666666664" y1="0" x2="24.166666666666664" y2="177" fill="rgb(0, 0, 0)" stroke="rgb(153, 153, 153)" stroke-width="1.5px"></line></g></g><g><g><g><g><g><path stroke="rgb(255, 112, 67)" stroke-width="2px" d="M24.166666666666664,86.37010607038226L26.583333333333332,64.50025383404324L29,80.85223017656422L31.416666666666668,80.46888966760716L33.833333333333336,100.27282365731068L36.25,74.96298054021544L38.666666666666664,90.17187082156863L41.083333333333336,42.48401859334393L43.5,53.79036222268646L45.916666666666664,51.31976700110218L48.33333333333333,41.43199851888257L50.75,24.106574458406044L53.166666666666664,68.01114066657844L55.583333333333336,68.8527645945192L58,108.66872227788762L60.41666666666667,124.20268593751423L62.833333333333336,78.710149097685L65.25,115.31593729398509L67.66666666666667,112.15372638434152L70.08333333333333,113.09508110225549L72.5,89.03412450990871L74.91666666666667,102.07600764996172L77.33333333333333,114.65820260388055L79.75,105.85291986988415L82.16666666666667,142.36642987988668L84.58333333333334,145.48672650132033L87,165.4805153791351L89.41666666666667,160.10578094607018L91.83333333333333,120.03055566715949L94.25,99.9606569804631L96.66666666666666,46.94177043460498L99.08333333333333,64.5863231690789L101.5,81.10119530303233L103.91666666666667,132.41037960159508L106.33333333333333,162.18108078564106L108.75,155.51707570105887L111.16666666666667,163.67278440281856L113.58333333333333,130.34928457522298L116,69.32388910805825L118.41666666666667,110.21174687136818L120.83333333333334,127.85720641421257L123.25,133.15091845992688L125.66666666666667,140.25299435890798L128.08333333333334,131.45667018385438L130.5,107.47540194367889L132.91666666666666,50.28145338623825L135.33333333333334,47.72415900587298L137.75,40.50215187134434L140.16666666666666,41.050710738423284L142.58333333333331,17.639879055605405L145,-8.466791778886728L147.41666666666666,15.655921800326764L149.83333333333334,3.341888695060147L152.25,62.96156082940324L154.66666666666666,90.22065615446712L157.08333333333331,84.35609997079783L159.5,46.261716775682956L161.91666666666666,37.808527835445595L164.33333333333334,37.433741862574536L166.75,55.11381223550911L169.16666666666669,18.51799005649692L171.58333333333334,57.025273556603906L174,70.46563626269435L176.41666666666666,22.290132577231258L178.83333333333334,63.738290732339195L181.25,21.539432830865447L183.66666666666666,45.93019896701296L186.08333333333334,83.04759160049242L188.5,58.39644809209649L190.91666666666666,86.83568119177089L193.33333333333331,88.28888648082705L195.75,102.43790084950346L198.16666666666666,113.55155886907708L200.58333333333334,124.28376013746883L203,108.27514363610504L205.41666666666669,86.83706313217223L207.83333333333334,102.02289575109464L210.25,106.47103571856624L212.66666666666666,76.49465852307611L215.08333333333334,79.21081242603178L217.5,106.64118166948624L219.91666666666666,127.89484957873556L222.33333333333334,122.91159260420982L224.75,77.50541215781047L227.16666666666666,53.1286197126812L229.58333333333331,74.02711408399126L232,112.94727917078399L234.41666666666666,135.22818853867295L236.83333333333334,105.99985486514711L239.25,113.86047104199564L241.66666666666669,114.99997667993719L244.08333333333334,125.7014023287631L246.5,170.97074670557262L248.91666666666666,176.15905372751487L251.33333333333334,147.509336393875L253.75,145.05806486645892L256.1666666666667,115.719721623384L258.58333333333337,131.54800197165872L261,143.28650769980607L263.4166666666667,129.97349030234386" style="fill: none;" fill="none"></path></g></g></g></g><g opacity="0.2"><g><g><g><path stroke="rgb(255, 112, 67)" stroke-width="2px" d="M24.166666666666664,86.37010607038226L26.583333333333332,51.37834249223981L29,96.55012746538435L31.416666666666668,80.01808122907366L33.833333333333336,126.12883987426757L36.25,39.95035596575056L38.666666666666664,111.92082726614815L41.083333333333336,-27.04532775878907L43.5,70.46502293178014L45.916666666666664,47.651221030099045L48.33333333333333,26.690027127947133L50.75,-1.7872774396623783L53.166666666666664,133.72463395254954L55.583333333333336,70.11355165754046L58,168.3458566393171L60.41666666666667,147.49267567225866L62.833333333333336,10.490594754900256L65.25,170.21532538277762L67.66666666666667,107.41089175088064L70.08333333333333,114.50702713557651L72.5,52.94400918143136L74.91666666666667,121.63840321132115L77.33333333333333,133.53124662126814L79.75,92.64510007585798L82.16666666666667,197.13643537248885L84.58333333333334,150.16715812683105L87,195.47114753723145L89.41666666666667,152.0436875479562L91.83333333333333,59.91775466373989L94.25,69.8558200427464L96.66666666666666,-32.58654180254255L99.08333333333333,91.05314876011441L101.5,105.87350153241839L103.91666666666667,209.3741523742676L106.33333333333333,206.83713128226145L108.75,145.521068246024L111.16666666666667,175.90634732927595L113.58333333333333,80.36403514317105L116,-22.214203752790176L118.41666666666667,171.54353337969098L120.83333333333334,154.3253956930978L123.25,141.0914865221296L125.66666666666667,150.90610820225305L128.08333333333334,118.26218392508372L130.5,71.50349958964756L132.91666666666666,-35.509469441005166L135.33333333333334,43.88821743556431L137.75,29.66914116995675L140.16666666666666,41.87354903902327L142.58333333333331,-17.476368468148348L145,-47.626798030308336L147.41666666666666,51.83999216897147L149.83333333333334,-15.129160962785994L152.25,152.3910690307617L154.66666666666666,131.1092991420201L157.08333333333331,75.55926569529942L159.5,-10.879858016967773L161.91666666666666,25.128744425092414L164.33333333333334,36.87156290326799L166.75,81.63391779490878L169.16666666666669,-36.37574321201868L171.58333333333334,114.7861988067627L174,90.62618032182965L176.41666666666666,-49.97312295096263L178.83333333333334,125.91052796500071L181.25,-41.75885402134488L183.66666666666666,82.51634817123413L186.08333333333334,138.7236805507115L188.5,21.419732829502642L190.91666666666666,129.49453084128243L193.33333333333331,90.46869441441127L195.75,123.66142240251813L198.16666666666666,130.2220458984375L200.58333333333334,140.3820620400565L203,84.26221888405937L205.41666666666669,54.679942376273026L207.83333333333334,124.80164467947823L210.25,113.14324566977363L212.66666666666666,31.530092729840966L215.08333333333334,83.28504328046526L217.5,147.78673553466797L219.91666666666666,159.77535144260952L222.33333333333334,115.43670714242118L224.75,9.396141488211494L227.16666666666666,16.56343104498726L229.58333333333331,105.37485564095634L232,171.32752680097306L234.41666666666666,168.64955259050643L236.83333333333334,62.1573543548584L239.25,125.6513953072684L241.66666666666669,116.70923513684956L244.08333333333334,141.75354080200196L246.5,238.87476327078684L248.91666666666666,183.9415142604283L251.33333333333334,104.53476039341518L253.75,141.38115757533484L256.1666666666667,71.71220675877163L258.58333333333337,155.29042249407087L261,160.89426629202705L263.4166666666667,110.00396420615061" style="fill: none;" fill="none"></path></g></g></g></g></g></g><g transform="translate(40, 177)" clip-path="url(#clip_1)"><clipPath id="clip_1"><rect width="290" height="23"></rect></clipPath><g><g><line x1="0" y1="0" x2="0" y2="5" style="visibility: inherit;" fill="rgb(0, 0, 0)" stroke="rgb(204, 204, 204)" stroke-width="1px"></line><line x1="24.166666666666664" y1="0" x2="24.166666666666664" y2="5" style="visibility: inherit;" fill="rgb(0, 0, 0)" stroke="rgb(204, 204, 204)" stroke-width="1px"></line><line x1="48.33333333333333" y1="0" x2="48.33333333333333" y2="5" style="visibility: inherit;" fill="rgb(0, 0, 0)" stroke="rgb(204, 204, 204)" stroke-width="1px"></line><line x1="72.5" y1="0" x2="72.5" y2="5" style="visibility: inherit;" fill="rgb(0, 0, 0)" stroke="rgb(204, 204, 204)" stroke-width="1px"></line><line x1="96.66666666666666" y1="0" x2="96.66666666666666" y2="5" style="visibility: inherit;" fill="rgb(0, 0, 0)" stroke="rgb(204, 204, 204)" stroke-width="1px"></line><line x1="120.83333333333334" y1="0" x2="120.83333333333334" y2="5" style="visibility: inherit;" fill="rgb(0, 0, 0)" stroke="rgb(204, 204, 204)" stroke-width="1px"></line><line x1="145" y1="0" x2="145" y2="5" style="visibility: inherit;" fill="rgb(0, 0, 0)" stroke="rgb(204, 204, 204)" stroke-width="1px"></line><line x1="169.16666666666669" y1="0" x2="169.16666666666669" y2="5" style="visibility: inherit;" fill="rgb(0, 0, 0)" stroke="rgb(204, 204, 204)" stroke-width="1px"></line><line x1="193.33333333333331" y1="0" x2="193.33333333333331" y2="5" style="visibility: inherit;" fill="rgb(0, 0, 0)" stroke="rgb(204, 204, 204)" stroke-width="1px"></line><line x1="217.5" y1="0" x2="217.5" y2="5" style="visibility: inherit;" fill="rgb(0, 0, 0)" stroke="rgb(204, 204, 204)" stroke-width="1px"></line><line x1="241.66666666666669" y1="0" x2="241.66666666666669" y2="5" style="visibility: inherit;" fill="rgb(0, 0, 0)" stroke="rgb(204, 204, 204)" stroke-width="1px"></line><line x1="265.8333333333333" y1="0" x2="265.8333333333333" y2="5" style="visibility: inherit;" fill="rgb(0, 0, 0)" stroke="rgb(204, 204, 204)" stroke-width="1px"></line><line x1="290" y1="0" x2="290" y2="5" style="visibility: inherit;" fill="rgb(0, 0, 0)" stroke="rgb(204, 204, 204)" stroke-width="1px"></line></g><g transform="translate(0, 8)"><text x="0" y="0" dx="0em" dy="0.95em" style="text-anchor: middle; visibility: hidden; font-family: Roboto, sans-serif; font-size: 12px; font-weight: 200;" fill="rgb(33, 33, 33)" stroke="none" stroke-width="1px">-10</text><text x="24.166666666666664" y="0" dx="0em" dy="0.95em" style="text-anchor: middle; visibility: inherit; font-family: Roboto, sans-serif; font-size: 12px; font-weight: 200;" fill="rgb(33, 33, 33)" stroke="none" stroke-width="1px">0</text><text x="48.33333333333333" y="0" dx="0em" dy="0.95em" style="text-anchor: middle; visibility: inherit; font-family: Roboto, sans-serif; font-size: 12px; font-weight: 200;" fill="rgb(33, 33, 33)" stroke="none" stroke-width="1px">10</text><text x="72.5" y="0" dx="0em" dy="0.95em" style="text-anchor: middle; visibility: inherit; font-family: Roboto, sans-serif; font-size: 12px; font-weight: 200;" fill="rgb(33, 33, 33)" stroke="none" stroke-width="1px">20</text><text x="96.66666666666666" y="0" dx="0em" dy="0.95em" style="text-anchor: middle; visibility: inherit; font-family: Roboto, sans-serif; font-size: 12px; font-weight: 200;" fill="rgb(33, 33, 33)" stroke="none" stroke-width="1px">30</text><text x="120.83333333333334" y="0" dx="0em" dy="0.95em" style="text-anchor: middle; visibility: inherit; font-family: Roboto, sans-serif; font-size: 12px; font-weight: 200;" fill="rgb(33, 33, 33)" stroke="none" stroke-width="1px">40</text><text x="145" y="0" dx="0em" dy="0.95em" style="text-anchor: middle; visibility: inherit; font-family: Roboto, sans-serif; font-size: 12px; font-weight: 200;" fill="rgb(33, 33, 33)" stroke="none" stroke-width="1px">50</text><text x="169.16666666666669" y="0" dx="0em" dy="0.95em" style="text-anchor: middle; visibility: inherit; font-family: Roboto, sans-serif; font-size: 12px; font-weight: 200;" fill="rgb(33, 33, 33)" stroke="none" stroke-width="1px">60</text><text x="193.33333333333331" y="0" dx="0em" dy="0.95em" style="text-anchor: middle; visibility: inherit; font-family: Roboto, sans-serif; font-size: 12px; font-weight: 200;" fill="rgb(33, 33, 33)" stroke="none" stroke-width="1px">70</text><text x="217.5" y="0" dx="0em" dy="0.95em" style="text-anchor: middle; visibility: inherit; font-family: Roboto, sans-serif; font-size: 12px; font-weight: 200;" fill="rgb(33, 33, 33)" stroke="none" stroke-width="1px">80</text><text x="241.66666666666669" y="0" dx="0em" dy="0.95em" style="text-anchor: middle; visibility: inherit; font-family: Roboto, sans-serif; font-size: 12px; font-weight: 200;" fill="rgb(33, 33, 33)" stroke="none" stroke-width="1px">90</text><text x="265.8333333333333" y="0" dx="0em" dy="0.95em" style="text-anchor: middle; visibility: inherit; font-family: Roboto, sans-serif; font-size: 12px; font-weight: 200;" fill="rgb(33, 33, 33)" stroke="none" stroke-width="1px">100</text><text x="290" y="0" dx="0em" dy="0.95em" style="text-anchor: middle; visibility: hidden; font-family: Roboto, sans-serif; font-size: 12px; font-weight: 200;" fill="rgb(33, 33, 33)" stroke="none" stroke-width="1px">110</text></g><line x1="0" y1="0" x2="290" y2="0" fill="rgb(0, 0, 0)" stroke="rgb(204, 204, 204)" stroke-width="1px"></line></g></g></g></g></svg>