<svg viewBox="0 0 330 200" xmlns="http://www.w3.org/2000/svg"><g><g><g><g><g><line x1="70" y1="177" x2="65" y2="177" style="visibility: inherit;" fill="rgb(0, 0, 0)" stroke="rgb(204, 204, 204)" stroke-width="1px"></line><line x1="70" y1="151.71428571428572" x2="65" y2="151.71428571428572" style="visibility: inherit;" fill="rgb(0, 0, 0)" stroke="rgb(204, 204, 204)" stroke-width="1px"></line><line x1="70" y1="126.42857142857143" x2="65" y2="126.42857142857143" style="visibility: inherit;" fill="rgb(0, 0, 0)" stroke="rgb(204, 204, 204)" stroke-width="1px"></line><line x1="70" y1="101.14285714285714" x2="65" y2="101.14285714285714" style="visibility: inherit;" fill="rgb(0, 0, 0)" stroke="rgb(204, 204, 204)" stroke-width="1px"></line><line x1="70" y1="75.85714285714286" x2="65" y2="75.85714285714286" style="visibility: inherit;" fill="rgb(0, 0, 0)" stroke="rgb(204, 204, 204)" stroke-width="1px"></line><line x1="70" y1="50.57142857142857" x2="65" y2="50.57142857142857" style="visibility: inherit;" fill="rgb(0, 0, 0)" stroke="rgb(204, 204, 204)" stroke-width="1px"></line><line x1="70" y1="25.285714285714295" x2="65" y2="25.285714285714295" style="visibility: inherit;" fill="rgb(0, 0, 0)" stroke="rgb(204, 204, 204)" stroke-width="1px"></line><line x1="70" y1="0" x2="65" y2="0" style="visibility: inherit;" fill="rgb(0, 0, 0)" stroke="rgb(204, 204, 204)" stroke-width="1px"></line></g><g transform="translate(60, 0)"><text x="0" y="177" dx="0em" dy="0.3em" style="text-anchor: end; visibility: hidden; font-family: Roboto, sans-serif; font-size: 12px; font-weight: 200;" fill="rgb(33, 33, 33)" stroke="none" stroke-width="1px">2e+4</text><text x="0" y="151.71428571428572" dx="0em" dy="0.3em" style="text-anchor: end; visibility: inherit; font-family: Roboto, sans-serif; font-size: 12px; font-weight: 200;" fill="rgb(33, 33, 33)" stroke="none" stroke-width="1px">2.5e+4</text><text x="0" y="126.42857142857143" dx="0em" dy="0.3em" style="text-anchor: end; visibility: inherit; font-family: Roboto, sans-serif; font-size: 12px; font-weight: 200;" fill="rgb(33, 33, 33)" stroke="none" stroke-width="1px">3e+4</text><text x="0" y="101.14285714285714" dx="0em" dy="0.3em" style="text-anchor: end; visibility: inherit; font-family: Roboto, sans-serif; font-size: 12px; font-weight: 200;" fill="rgb(33, 33, 33)" stroke="none" stroke-width="1px">3.5e+4</text><text x="0" y="75.85714285714286" dx="0em" dy="0.3em" style="text-anchor: end; visibility: inherit; font-family: Roboto, sans-serif; font-size: 12px; font-weight: 200;" fill="rgb(33, 33, 33)" stroke="none" stroke-width="1px">4e+4</text><text x="0" y="50.57142857142857" dx="0em" dy="0.3em" style="text-anchor: end; visibility: inherit; font-family: Roboto, sans-serif; font-size: 12px; font-weight: 200;" fill="rgb(33, 33, 33)" stroke="none" stroke-width="1px">4.5e+4</text><text x="0" y="25.285714285714295" dx="0em" dy="0.3em" style="text-anchor: end; visibility: inherit; font-family: Roboto, sans-serif; font-size: 12px; font-weight: 200;" fill="rgb(33, 33, 33)" stroke="none" stroke-width="1px">5e+4</text><text x="0" y="0" dx="0em" dy="0.3em" style="text-anchor: end; visibility: hidden; font-family: Roboto, sans-serif; font-size: 12px; font-weight: 200;" fill="rgb(33, 33, 33)" stroke="none" stroke-width="1px">5.5e+4</text></g><line x1="70" y1="0" x2="70" y2="177" fill="rgb(0, 0, 0)" stroke="rgb(204, 204, 204)" stroke-width="1px"></line></g></g><g transform="translate(70, 0)" clip-path="url(#clip_0)"><clipPath id="clip_0"><rect width="260" height="177"></rect></clipPath><g><g><g><line x1="0" y1="0" x2="0" y2="177" fill="rgb(0, 0, 0)" stroke="rgb(66, 66, 66)" stroke-width="1px" opacity="0.25"></line><line x1="21.666666666666664" y1="0" x2="21.666666666666664" y2="177" fill="rgb(0, 0, 0)" stroke="rgb(66, 66, 66)" stroke-width="1px" opacity="0.25"></line><line x1="43.33333333333333" y1="0" x2="43.33333333333333" y2="177" fill="rgb(0, 0, 0)" stroke="rgb(66, 66, 66)" stroke-width="1px" opacity="0.25"></line><line x1="65" y1="0" x2="65" y2="177" fill="rgb(0, 0, 0)" stroke="rgb(66, 66, 66)" stroke-width="1px" opacity="0.25"></line><line x1="86.66666666666666" y1="0" x2="86.66666666666666" y2="177" fill="rgb(0, 0, 0)" stroke="rgb(66, 66, 66)" stroke-width="1px" opacity="0.25"></line><line x1="108.33333333333334" y1="0" x2="108.33333333333334" y2="177" fill="rgb(0, 0, 0)" stroke="rgb(66, 66, 66)" stroke-width="1px" opacity="0.25"></line><line x1="130" y1="0" x2="130" y2="177" fill="rgb(0, 0, 0)" stroke="rgb(66, 66, 66)" stroke-width="1px" opacity="0.25"></line><line x1="151.66666666666669" y1="0" x2="151.66666666666669" y2="177" fill="rgb(0, 0, 0)" stroke="rgb(66, 66, 66)" stroke-width="1px" opacity="0.25"></line><line x1="173.33333333333331" y1="0" x2="173.33333333333331" y2="177" fill="rgb(0, 0, 0)" stroke="rgb(66, 66, 66)" stroke-width="1px" opacity="0.25"></line><line x1="195" y1="0" x2="195" y2="177" fill="rgb(0, 0, 0)" stroke="rgb(66, 66, 66)" stroke-width="1px" opacity="0.25"></line><line x1="216.66666666666669" y1="0" x2="216.66666666666669" y2="177" fill="rgb(0, 0, 0)" stroke="rgb(66, 66, 66)" stroke-width="1px" opacity="0.25"></line><line x1="238.33333333333331" y1="0" x2="238.33333333333331" y2="177" fill="rgb(0, 0, 0)" stroke="rgb(66, 66, 66)" stroke-width="1px" opacity="0.25"></line><line x1="260" y1="0" x2="260" y2="177" fill="rgb(0, 0, 0)" stroke="rgb(66, 66, 66)" stroke-width="1px" opacity="0.25"></line></g><g><line x1="0" y1="177" x2="260" y2="177" fill="rgb(0, 0, 0)" stroke="rgb(66, 66, 66)" stroke-width="1px" opacity="0.25"></line><line x1="0" y1="151.71428571428572" x2="260" y2="151.71428571428572" fill="rgb(0, 0, 0)" stroke="rgb(66, 66, 66)" stroke-width="1px" opacity="0.25"></line><line x1="0" y1="126.42857142857143" x2="260" y2="126.42857142857143" fill="rgb(0, 0, 0)" stroke="rgb(66, 66, 66)" stroke-width="1px" opacity="0.25"></line><line x1="0" y1="101.14285714285714" x2="260" y2="101.14285714285714" fill="rgb(0, 0, 0)" stroke="rgb(66, 66, 66)" stroke-width="1px" opacity="0.25"></line><line x1="0" y1="75.85714285714286" x2="260" y2="75.85714285714286" fill="rgb(0, 0, 0)" stroke="rgb(66, 66, 66)" stroke-width="1px" opacity="0.25"></line><line x1="0" y1="50.57142857142857" x2="260" y2="50.57142857142857" fill="rgb(0, 0, 0)" stroke="rgb(66, 66, 66)" stroke-width="1px" opacity="0.25"></line><line x1="0" y1="25.285714285714295" x2="260" y2="25.285714285714295" fill="rgb(0, 0, 0)" stroke="rgb(66, 66, 66)" stroke-width="1px" opacity="0.25"></line><line x1="0" y1="0" x2="260" y2="0" fill="rgb(0, 0, 0)" stroke="rgb(66, 66, 66)" stroke-width="1px" opacity="0.25"></line></g></g></g><g><g><line x1="0" y1="278.1428571428571" x2="260" y2="278.1428571428571" fill="rgb(0, 0, 0)" stroke="rgb(153, 153, 153)" stroke-width="1.5px"></line></g></g><g><g><line x1="21.666666666666664" y1="0" x2="21.666666666666664" y2="177" fill="rgb(0, 0, 0)" stroke="rgb(153, 153, 153)" stroke-width="1.5px"></line></g></g><g><g><g><g><g><path stroke="rgb(255, 112, 67)" stroke-width="2px" d="M28.166666666666668,185.2392035300888L30.333333333333332,174.12852044608394L32.5,165.40975873931654L34.666666666666664,162.40080812473707L36.833333333333336,147.42342671058628L39,133.38569732042026L41.166666666666664,123.66656232991896L43.33333333333333,110.07502179617275L45.5,103.31579220612706L47.666666666666664,81.09227714744785L49.833333333333336,61.959559880227694L52,47.89669078717756L54.16666666666667,61.05777892241968L56.333333333333336,72.52842399512222L58.5,73.12791938894244L60.666666666666664,75.36281728333114L62.833333333333336,67.71055478758618L65,54.28215722302857L67.16666666666667,38.13988820580763L69.33333333333333,37.30087656541322L71.5,33.44299185554761L73.66666666666667,43.83499662238312L75.83333333333334,54.280243380398026L78,73.37473329447958L80.16666666666667,78.5358448425251L82.33333333333333,86.57511013549203L84.5,62.572203989164336L86.66666666666666,31.087496074372787L88.83333333333333,28.25772639262616L91,10.804374912858128L93.16666666666667,18.74570669310057L95.33333333333333,21.800875229095116L97.5,23.63285426349574L99.66666666666667,22.79349657076006L101.83333333333333,27.578657781652854L104,25.121659395660615L106.16666666666667,25.477387512871886L108.33333333333334,25.25794085576139L110.5,21.306699779412487L112.66666666666667,18.927713572317707L114.83333333333333,20.51049921509343L117,15.681602608911255L119.16666666666666,15.515469467122104L121.33333333333333,14.562056948094723L123.5,18.087472517150303L125.66666666666667,14.967828331676724L127.83333333333333,18.738422534750793L130,14.904543476189051L132.16666666666666,13.806227782138794L134.33333333333334,5.606374615697529L136.5,9.09811905513647L138.66666666666666,6.754100540223254L140.83333333333331,8.210838270563046L143,6.965724703408943L145.16666666666666,9.223832098831402L147.33333333333334,10.779512518227508L149.5,12.491799787722329L151.66666666666669,18.379283979776403L153.83333333333334,18.581709137865868L156,21.543587536290943L158.16666666666666,27.758167789631777L160.33333333333334,18.58127701306475L162.5,39.607237100696025L164.66666666666666,36.98154859970332L166.83333333333334,48.304757641964834L169,58.14463181732176L171.16666666666666,67.98130667967877L173.33333333333331,97.08101061495012L175.5,89.16198824397006L177.66666666666666,109.06863446423914L179.83333333333334,112.21328054461493L182,113.23408779105469L184.16666666666669,106.60268120141853L186.33333333333334,108.14192287263683L188.5,118.25514983965354L190.66666666666666,123.2264366895064L192.83333333333334,129.5937253619181L195,125.3400183644723L197.16666666666666,129.40273061689766L199.33333333333334,136.53863332549577L201.5,142.3543777631546L203.66666666666666,145.10389330967845L205.83333333333331,143.17430705723567L208,144.39176887719853L210.16666666666666,137.69768070131914L212.33333333333334,141.40967598775578L214.5,140.91520974443915L216.66666666666669,139.94307745380635L218.83333333333334,147.73562772228382L221,147.10757018247742L223.16666666666666,154.44064626127215L225.33333333333334,157.35880436390616L227.5,146.06656132370082L229.66666666666666,151.74220148172049L231.83333333333334,155.55030008546086L234,156.35672328788365L236.16666666666666,151.7244435709445" style="fill: none;" fill="none"></path></g></g></g></g><g opacity="0.2"><g><g><g><path stroke="rgb(255, 112, 67)" stroke-width="2px" d="M26,204.40740795200892L28.166666666666668,156.56890580357143L30.333333333333332,159.62241261160713L32.5,153.34857254464285L34.666666666666664,158.09796060267857L36.833333333333336,125.58626082589286L39,112.68277315848215L41.166666666666664,109.23477957589284L43.33333333333333,89.81098526785716L45.5,93.21373125L47.666666666666664,47.829568191964285L49.833333333333336,33.297966964285706L52,26.81891752232144L54.16666666666667,80.79012890624999L56.333333333333336,89.72953761160714L58.5,74.02701026785714L60.666666666666664,78.71482366071429L62.833333333333336,56.23286049107143L65,34.14029732142856L67.16666666666667,13.927015848214287L69.33333333333333,36.04237566964285L71.5,27.656210491071427L73.66666666666667,59.42292991071428L75.83333333333334,69.94806897321429L78,102.01641930803571L80.16666666666667,86.27750424107141L82.33333333333333,98.63400066964284L84.5,26.56785803571429L86.66666666666666,-16.13955535714287L88.83333333333333,24.013072433035706L91,-15.37565022321429L93.16666666666667,30.657703794642863L95.33333333333333,26.38362790178572L97.5,26.38082276785715L99.66666666666667,21.534460044642866L101.83333333333333,34.756399553571434L104,21.43616183035715L106.16666666666667,26.010979687499994L108.33333333333334,24.928770870535722L110.5,15.379838169642863L112.66666666666667,15.359234263392848L114.83333333333333,22.884677678571435L117,8.438257700892853L119.16666666666666,15.266269754464295L121.33333333333333,13.131938169642856L123.5,23.375595870535708L125.66666666666667,10.288362053571433L127.83333333333333,24.394313839285704L130,9.153724888392867L132.16666666666666,12.158754241071428L134.33333333333334,-6.6934051339285565L136.5,14.335735714285704L138.66666666666666,3.238072767857145L140.83333333333331,10.395944866071428L143,5.0980543526785755L145.16666666666666,12.610993191964283L147.33333333333334,13.113033147321428L149.5,15.060230691964295L151.66666666666669,27.210510267857142L153.83333333333334,18.885346875000003L156,25.986405133928574L158.16666666666666,37.080038169642854L160.33333333333334,4.815940848214279L162.5,71.14617723214286L164.66666666666666,33.04301584821428L166.83333333333334,65.28957120535715L169,72.90444308035715L171.16666666666666,82.7363189732143L173.33333333333331,140.73056651785714L175.5,77.2834546875L177.66666666666666,138.92860379464284L179.83333333333334,116.93024966517856L182,114.7652986607143L184.16666666666669,96.65557131696427L186.33333333333334,110.45078537946428L188.5,133.42499029017858L190.66666666666666,130.6833669642857L192.83333333333334,139.14465837053572L195,118.95945786830359L197.16666666666666,135.49679899553573L199.33333333333334,147.24248738839287L201.5,151.07799441964286L203.66666666666666,149.22816662946428L205.83333333333331,140.27992767857143L208,146.21796160714285L210.16666666666666,127.65654843749999L212.33333333333334,146.9776689174107L214.5,140.1735103794643L216.66666666666669,138.48487901785714L218.83333333333334,159.42445312499999L221,146.16548387276785L223.16666666666666,165.4402603794643L225.33333333333334,161.73604151785716L227.5,129.12819676339285L229.66666666666666,160.25566171875L231.83333333333334,161.26244799107144L234,157.56635809151786L236.16666666666666,144.7760239955357" style="fill: none;" fill="none"></path></g></g></g></g></g></g><g transform="translate(70, 177)" clip-path="url(#clip_1)"><clipPath id="clip_1"><rect width="260" height="23"></rect></clipPath><g><g><line x1="0" y1="0" x2="0" y2="5" style="visibility: inherit;" fill="rgb(0, 0, 0)" stroke="rgb(204, 204, 204)" stroke-width="1px"></line><line x1="21.666666666666664" y1="0" x2="21.666666666666664" y2="5" style="visibility: inherit;" fill="rgb(0, 0, 0)" stroke="rgb(204, 204, 204)" stroke-width="1px"></line><line x1="43.33333333333333" y1="0" x2="43.33333333333333" y2="5" style="visibility: inherit;" fill="rgb(0, 0, 0)" stroke="rgb(204, 204, 204)" stroke-width="1px"></line><line x1="65" y1="0" x2="65" y2="5" style="visibility: inherit;" fill="rgb(0, 0, 0)" stroke="rgb(204, 204, 204)" stroke-width="1px"></line><line x1="86.66666666666666" y1="0" x2="86.66666666666666" y2="5" style="visibility: inherit;" fill="rgb(0, 0, 0)" stroke="rgb(204, 204, 204)" stroke-width="1px"></line><line x1="108.33333333333334" y1="0" x2="108.33333333333334" y2="5" style="visibility: inherit;" fill="rgb(0, 0, 0)" stroke="rgb(204, 204, 204)" stroke-width="1px"></line><line x1="130" y1="0" x2="130" y2="5" style="visibility: inherit;" fill="rgb(0, 0, 0)" stroke="rgb(204, 204, 204)" stroke-width="1px"></line><line x1="151.66666666666669" y1="0" x2="151.66666666666669" y2="5" style="visibility: inherit;" fill="rgb(0, 0, 0)" stroke="rgb(204, 204, 204)" stroke-width="1px"></line><line x1="173.33333333333331" y1="0" x2="173.33333333333331" y2="5" style="visibility: inherit;" fill="rgb(0, 0, 0)" stroke="rgb(204, 204, 204)" stroke-width="1px"></line><line x1="195" y1="0" x2="195" y2="5" style="visibility: inherit;" fill="rgb(0, 0, 0)" stroke="rgb(204, 204, 204)" stroke-width="1px"></line><line x1="216.66666666666669" y1="0" x2="216.66666666666669" y2="5" style="visibility: inherit;" fill="rgb(0, 0, 0)" stroke="rgb(204, 204, 204)" stroke-width="1px"></line><line x1="238.33333333333331" y1="0" x2="238.33333333333331" y2="5" style="visibility: inherit;" fill="rgb(0, 0, 0)" stroke="rgb(204, 204, 204)" stroke-width="1px"></line><line x1="260" y1="0" x2="260" y2="5" style="visibility: inherit;" fill="rgb(0, 0, 0)" stroke="rgb(204, 204, 204)" stroke-width="1px"></line></g><g transform="translate(0, 8)"><text x="0" y="0" dx="0em" dy="0.95em" style="text-anchor: middle; visibility: hidden; font-family: Roboto, sans-serif; font-size: 12px; font-weight: 200;" fill="rgb(33, 33, 33)" stroke="none" stroke-width="1px">-10</text><text x="21.666666666666664" y="0" dx="0em" dy="0.95em" style="text-anchor: middle; visibility: inherit; font-family: Roboto, sans-serif; font-size: 12px; font-weight: 200;" fill="rgb(33, 33, 33)" stroke="none" stroke-width="1px">0</text><text x="43.33333333333333" y="0" dx="0em" dy="0.95em" style="text-anchor: middle; visibility: inherit; font-family: Roboto, sans-serif; font-size: 12px; font-weight: 200;" fill="rgb(33, 33, 33)" stroke="none" stroke-width="1px">10</text><text x="65" y="0" dx="0em" dy="0.95em" style="text-anchor: middle; visibility: inherit; font-family: Roboto, sans-serif; font-size: 12px; font-weight: 200;" fill="rgb(33, 33, 33)" stroke="none" stroke-width="1px">20</text><text x="86.66666666666666" y="0" dx="0em" dy="0.95em" style="text-anchor: middle; visibility: inherit; font-family: Roboto, sans-serif; font-size: 12px; font-weight: 200;" fill="rgb(33, 33, 33)" stroke="none" stroke-width="1px">30</text><text x="108.33333333333334" y="0" dx="0em" dy="0.95em" style="text-anchor: middle; visibility: inherit; font-family: Roboto, sans-serif; font-size: 12px; font-weight: 200;" fill="rgb(33, 33, 33)" stroke="none" stroke-width="1px">40</text><text x="130" y="0" dx="0em" dy="0.95em" style="text-anchor: middle; visibility: inherit; font-family: Roboto, sans-serif; font-size: 12px; font-weight: 200;" fill="rgb(33, 33, 33)" stroke="none" stroke-width="1px">50</text><text x="151.66666666666669" y="0" dx="0em" dy="0.95em" style="text-anchor: middle; visibility: inherit; font-family: Roboto, sans-serif; font-size: 12px; font-weight: 200;" fill="rgb(33, 33, 33)" stroke="none" stroke-width="1px">60</text><text x="173.33333333333331" y="0" dx="0em" dy="0.95em" style="text-anchor: middle; visibility: inherit; font-family: Roboto, sans-serif; font-size: 12px; font-weight: 200;" fill="rgb(33, 33, 33)" stroke="none" stroke-width="1px">70</text><text x="195" y="0" dx="0em" dy="0.95em" style="text-anchor: middle; visibility: inherit; font-family: Roboto, sans-serif; font-size: 12px; font-weight: 200;" fill="rgb(33, 33, 33)" stroke="none" stroke-width="1px">80</text><text x="216.66666666666669" y="0" dx="0em" dy="0.95em" style="text-anchor: middle; visibility: inherit; font-family: Roboto, sans-serif; font-size: 12px; font-weight: 200;" fill="rgb(33, 33, 33)" stroke="none" stroke-width="1px">90</text><text x="238.33333333333331" y="0" dx="0em" dy="0.95em" style="text-anchor: middle; visibility: inherit; font-family: Roboto, sans-serif; font-size: 12px; font-weight: 200;" fill="rgb(33, 33, 33)" stroke="none" stroke-width="1px">100</text><text x="260" y="0" dx="0em" dy="0.95em" style="text-anchor: middle; visibility: hidden; font-family: Roboto, sans-serif; font-size: 12px; font-weight: 200;" fill="rgb(33, 33, 33)" stroke="none" stroke-width="1px">110</text></g><line x1="0" y1="0" x2="260" y2="0" fill="rgb(0, 0, 0)" stroke="rgb(204, 204, 204)" stroke-width="1px"></line></g></g></g></g></svg>